<svg xmlns="http://www.w3.org/2000/svg" xmlns:xlink="http://www.w3.org/1999/xlink" width="500" zoomAndPan="magnify" viewBox="0 0 375 374.999991" height="500" preserveAspectRatio="xMidYMid meet" version="1.0"><defs><clipPath id="06b5d9960d"><path d="M 51.1875 30.328125 L 323.4375 30.328125 L 323.4375 344.578125 L 51.1875 344.578125 Z M 51.1875 30.328125 " clip-rule="nonzero"/></clipPath></defs><g clip-path="url(#06b5d9960d)"><path fill="#fa6559" d="M 192.007812 33.273438 L 206.089844 40.90625 L 187.3125 52.066406 L 163.84375 65.578125 L 69.964844 119.613281 L 69.964844 255.292969 L 142.722656 296.992188 L 146.242188 295.230469 L 168.539062 282.308594 L 216.0625 254.703125 L 259.484375 229.449219 L 259.484375 145.457031 L 223.691406 124.3125 L 213.128906 118.4375 L 231.90625 107.867188 L 269.457031 129.011719 L 294.6875 114.328125 L 245.988281 86.132812 L 231.90625 77.910156 L 206.089844 92.59375 L 187.3125 103.753906 L 179.097656 108.453125 L 166.777344 115.5 L 114.558594 145.457031 L 114.558594 229.449219 L 161.496094 256.464844 L 142.722656 267.625 L 95.78125 240.019531 L 95.78125 134.882812 L 176.753906 87.894531 L 183.207031 84.371094 L 213.128906 66.75 L 231.90625 56.179688 L 323.4375 109.039062 L 323.4375 119.613281 L 304.074219 130.773438 L 278.847656 145.457031 L 278.847656 229.449219 L 291.753906 237.082031 L 304.074219 244.132812 L 323.4375 255.292969 L 323.4375 265.863281 L 187.3125 344.570312 L 168.539062 333.996094 L 187.3125 322.835938 L 213.71875 307.566406 L 294.6875 260.578125 L 269.457031 245.894531 L 200.808594 285.246094 L 187.3125 292.882812 L 142.722656 318.726562 L 51.1875 265.863281 L 51.1875 109.039062 L 187.3125 30.335938 Z M 192.007812 33.273438 " fill-opacity="1" fill-rule="nonzero"/></g><path fill="#fa6559" d="M 182.054688 100.609375 L 191.449219 84.316406 L 256.261719 121.773438 L 246.863281 138.066406 Z M 182.054688 100.609375 " fill-opacity="1" fill-rule="evenodd"/></svg>